# xmcd
#
# Track frame offsets: 
#        183
#        23575
#        39698
#        52208
#        69323
#        87250
#        99628
#        112348
#        122775
#
# Disc length: 1826 seconds
#
# Revision: 1
# Processed by: cddbd v1.5.2PL0 Copyright (c) Steve Scherf et al.
# Submitted via: ExactAudioCopyFreeDBPlugin 1.0
#
DISCID=7d072009
DTITLE=Red Sovine - Golden Hits
DYEAR=1989
DGENRE=Country
TTITLE0=Teddy Bear
TTITLE1=Daddy's Girl
TTITLE2=I Didn't Jump The Fence
TTITLE3=Bootlegger King
TTITLE4=Little Rosa
TTITLE5=Lay Down Sally
TTITLE6=The Last Goodbye
TTITLE7=Six Days On The Road
TTITLE8=18 Wheels A Hummin' Home Sweet Home
EXTD=
EXTT0=
EXTT1=
EXTT2=
EXTT3=
EXTT4=
EXTT5=
EXTT6=
EXTT7=
EXTT8=
PLAYORDER=
